<svg viewBox="0 0 60 60" fill="none" xmlns="http://www.w3.org/2000/svg">
  <!-- Book base -->
  <rect x="15" y="20" width="30" height="25" rx="3" fill="rgba(255,255,255,0.15)" stroke="currentColor" strokeWidth="2"/>
  
  <!-- Book pages -->
  <path d="M18 25L42 25M18 30L42 30M18 35L35 35" stroke="currentColor" strokeWidth="1.5" strokeLinecap="round" opacity="0.8"/>
  
  <!-- AI chip/circuit on book -->
  <rect x="22" y="15" width="16" height="8" rx="2" fill="rgba(255,255,255,0.2)" stroke="currentColor" strokeWidth="1.5"/>
  
  <!-- Circuit elements -->
  <circle cx="26" cy="19" r="1" fill="currentColor"/>
  <circle cx="30" cy="19" r="1" fill="currentColor"/>
  <circle cx="34" cy="19" r="1" fill="currentColor"/>
  
  <!-- Connection lines -->
  <path d="M27 19L29 19M31 19L33 19" stroke="currentColor" strokeWidth="1" opacity="0.8"/>
  
  <!-- Question mark bubble -->
  <circle cx="42" cy="12" r="8" fill="rgba(255,255,255,0.2)" stroke="currentColor" strokeWidth="2"/>
  
  <!-- Question mark -->
  <path d="M39 9C39 8 40 7 42 7C44 7 45 8 45 9C45 10 44 10.5 43 11V12.5" stroke="currentColor" strokeWidth="2" strokeLinecap="round"/>
  <circle cx="42.5" cy="15" r="1" fill="currentColor"/>
  
  <!-- Sparkle effects -->
  <path d="M12 15L14 17L12 19L10 17Z" fill="currentColor" opacity="0.6"/>
  <path d="M50 35L52 37L50 39L48 37Z" fill="currentColor" opacity="0.6"/>
  <circle cx="48" cy="25" r="1.5" fill="currentColor" opacity="0.4"/>
  <circle cx="12" cy="35" r="1" fill="currentColor" opacity="0.5"/>
</svg>